<svg xmlns="http://www.w3.org/2000/svg" width="85" height="85" viewBox="0 0 85 85">
    <g data-name="Group 35">
        <path data-name="Path 2" d="M76.572 17.53a4.939 4.939 0 0 0-4.1-2.766l-4.272-.393 7.527-7.595a2.6 2.6 0 1 0-3.691-3.661l-7.572 7.635-.4-4.4a4.939 4.939 0 0 0-2.763-4.1 4.688 4.688 0 0 0-5.3.958L50.393 8.82a2.606 2.606 0 0 0-.752 2.08l.977 10.623a6.257 6.257 0 0 1-1.787 4.977L29.246 46.258a2.609 2.609 0 0 0 .015 3.691 2.552 2.552 0 0 0 1.83.744 2.6 2.6 0 0 0 1.845-.759l19.7-19.869a6.258 6.258 0 0 1 5.016-1.826l10.273.944c.08.007.16.011.238.011A2.6 2.6 0 0 0 70 28.431l5.61-5.608a4.685 4.685 0 0 0 .959-5.293zm-9.387 6.355-11.214-1.03-1.032-11.215 4.008-4.009.833 9.058a2.6 2.6 0 0 0 2.354 2.355l9.057.833z" transform="translate(7.997 -1.821)" style="fill:#d53100"/>
        <path data-name="Path 3" d="M39.827 24.831a14.835 14.835 0 1 0 8.758 8.684l-9.467 9.549a6.167 6.167 0 1 1-8.74-8.7z" transform="translate(4.871 6.824)" style="fill:#d53100"/>
        <path data-name="Path 4" d="m77.841 30.476-10.149-.928a2.49 2.49 0 0 0-.244-.011 2.685 2.685 0 0 0-1.89.785l-2.195 2.2a25.159 25.159 0 0 1-5.947 32.934 25.443 25.443 0 0 1-33.564-1.89 25.151 25.151 0 0 1-2.178-33.391 25.433 25.433 0 0 1 33.037-6.193l2.09-2.1a2.637 2.637 0 0 0 .76-2.108L56.6 9.332c-.01-.106.01-.208.005-.314A39.7 39.7 0 0 0 8.723 23.9a39.274 39.274 0 0 0 5.2 49.659 39.733 39.733 0 0 0 49.936 4.73A39.308 39.308 0 0 0 78.382 30.5c-.182 0-.358-.007-.541-.024z" transform="translate(-2.202 .02)" style="fill:#d53100"/>
    </g>
</svg>
