<svg xmlns="http://www.w3.org/2000/svg" width="85" height="85" viewBox="0 0 85 85">
    <path d="M82.344 23.906A2.664 2.664 0 0 0 85 21.25V2.654a2.678 2.678 0 0 0-.207-1.025c-.027-.064-.082-.109-.114-.173a2.563 2.563 0 0 0-.452-.683 2.569 2.569 0 0 0-.677-.449 1.862 1.862 0 0 0-.178-.117A2.7 2.7 0 0 0 82.346 0H63.753a2.656 2.656 0 1 0 0 5.313h12.181L42.5 38.744 9.068 5.313H21.25a2.656 2.656 0 0 0 0-5.313H2.654a2.629 2.629 0 0 0-1.023.21c-.064.027-.112.082-.173.114a2.606 2.606 0 0 0-.682.452 2.569 2.569 0 0 0-.449.677 1.863 1.863 0 0 0-.117.178A2.629 2.629 0 0 0 0 2.654v18.593a2.656 2.656 0 1 0 5.313 0V9.068L38.744 42.5 28.119 53.125H13.281a2.656 2.656 0 0 0 0 5.313h9.525l-5.312 5.312H2.656a2.656 2.656 0 0 0 0 5.313h13.282v13.281a2.656 2.656 0 0 0 5.313 0V67.506l5.313-5.312v9.525a2.656 2.656 0 0 0 5.313 0V56.881L42.5 46.256l10.625 10.625v14.838a2.656 2.656 0 0 0 5.313 0v-9.526l5.313 5.313v14.838a2.656 2.656 0 0 0 5.313 0V69.063h13.28a2.656 2.656 0 0 0 0-5.312H67.506l-5.312-5.312h9.525a2.656 2.656 0 0 0 0-5.312H56.881L46.256 42.5 79.688 9.068V21.25a2.664 2.664 0 0 0 2.656 2.656z" style="fill:#006724"/>
</svg>
